PathFileType	4	(X/Y/Z)	D:\TRACE\v60_Jaco2_6-2-23\JustBodyDRS_Motion3_3-v60.trc
DataRate	CameraRate	NumFrames	NumMarkers	Units	OrigDataRate	OrigDataStartFrame	OrigNumFrames
100.00	100.00	      42	9	mm	100.00	3501	      7000
Frame#	Time	front left toe			Front right toe			aft left toe			aft right toe			Arm			FL body			FR body			AL Body			AR Body			
		X1	Y1	Z1	X2	Y2	Z2	X3	Y3	Z3	X4	Y4	Z4	X5	Y5	Z5	X6	Y6	Z6	X7	Y7	Z7	X8	Y8	Z8	X9	Y9	Z9	

3501	35.000	-115.73046	136.54248	-66.99610	263.25494	18.54180	-54.64886	-123.23542	0.39958	566.55817	260.73856	118.19312	553.76947	75.41624	1207.30225	-59.10941	-5.67980	579.83295	-199.88287	152.75204	580.31879	-198.79736	-3.70406	531.48120	743.84174	147.71106	522.20398	743.08234	
3502	35.010	-118.23158	130.01392	-68.33561	263.22885	18.57317	-54.67765	-123.39381	0.43994	566.50232	256.64932	111.68884	553.11163	75.13250	1207.19910	-59.95385	-5.82731	579.53265	-200.41830	152.35126	580.35095	-199.31436	-5.05367	531.70197	742.76672	146.33455	522.55420	742.36633	
3503	35.020	-120.89519	123.15141	-70.37933	263.24747	18.62937	-54.72663	-123.44765	0.47894	566.48419	252.87749	104.41702	551.97815	74.03027	1207.39124	-60.71661	-6.16732	579.55719	-201.27176	151.98343	580.45856	-200.05156	-5.96479	532.09723	742.18665	145.24083	523.01746	741.83130	
3504	35.030	-123.70080	115.50484	-72.77354	263.18536	18.61147	-54.80219	-123.55106	0.66167	566.35895	248.90053	95.75500	550.19043	73.05491	1207.55261	-61.98252	-6.47059	579.84290	-202.53841	151.62296	580.43292	-200.89500	-7.27315	532.36206	740.93982	143.85503	523.14655	741.13293	
3505	35.040	-126.87167	107.42974	-75.48380	263.09146	18.60811	-54.89347	-124.09083	1.12667	566.23846	244.71400	85.74037	548.12708	72.27679	1207.49255	-62.94194	-6.77586	579.89063	-203.30658	151.35782	580.40137	-201.67984	-8.58124	532.49554	740.11279	142.67560	523.31750	740.46301	
3506	35.050	-130.06862	98.81249	-78.27148	263.08081	18.57229	-54.89226	-124.28288	1.32126	565.92200	240.56276	74.70288	546.25043	71.44821	1207.67419	-64.27210	-7.38195	580.32617	-204.48328	151.05453	580.52954	-202.47299	-9.58929	532.78644	739.08618	141.33513	523.32477	739.47705	
3507	35.060	-133.22269	89.96940	-81.07030	263.02325	18.56731	-54.93295	-124.41936	1.35127	565.83130	236.62387	63.34922	544.64325	71.22250	1207.41589	-65.22202	-7.41178	579.91443	-205.12617	151.22658	580.47748	-203.51733	-11.07594	532.75720	738.21533	137.86989	523.37659	738.74158	
3508	35.070	-135.46883	80.71574	-83.51752	262.91428	18.56101	-54.97636	-124.51955	1.36698	565.77020	233.09529	53.19887	542.55109	71.25116	1207.41101	-66.25928	-7.87210	580.03729	-206.65562	150.78302	580.20581	-204.54779	-12.31939	532.84052	737.09027	136.80951	523.38434	737.73334	
3509	35.080	-137.17047	71.42095	-85.44380	262.87924	18.51155	-55.06496	-124.30924	1.27472	565.66638	230.46901	43.48476	540.84149	71.94021	1207.40125	-67.17361	-8.04678	579.76343	-207.31833	150.31459	579.99475	-205.59248	-13.07326	532.93048	735.82709	135.50806	523.46710	736.75146	
3510	35.090	-138.36006	62.35891	-87.38100	262.80518	18.53829	-55.08195	-124.29868	1.38653	565.60120	227.54633	33.76035	538.66760	72.69389	1207.57776	-68.14913	-8.80492	580.29449	-208.87541	149.49084	580.14258	-206.52806	-14.46346	532.98438	734.46716	134.65598	523.32837	735.51062	
3511	35.100	-139.05963	53.90619	-89.23808	262.79498	18.49326	-55.15955	-124.63542	1.65957	565.47754	226.26427	25.21084	536.36395	73.48412	1207.63281	-69.42279	-9.04206	580.39838	-210.33331	149.44661	579.99878	-207.64043	-15.28069	533.17029	733.36658	133.61099	523.12543	734.27606	
3512	35.110	-139.43517	46.28648	-91.30764	262.76141	18.49759	-55.15921	-124.50598	1.49453	565.39160	225.91461	17.38264	534.23560	73.99544	1207.60425	-70.73139	-9.22305	580.40991	-211.51913	149.04004	580.04962	-208.96773	-16.31875	533.10333	732.00238	132.15942	522.73248	732.92993	
3513	35.120	-139.46124	39.28021	-92.87257	262.69766	18.48267	-55.21035	-124.63325	1.48817	565.29742	225.55975	10.44854	531.68005	74.62286	1207.48853	-71.86874	-9.76529	580.87189	-213.11502	148.96162	580.03070	-210.08324	-17.84324	532.79504	730.39502	131.08298	522.34979	731.66156	
3514	35.130	-139.93147	33.11493	-95.03832	262.64026	18.53938	-55.20984	-124.72382	1.52946	565.20386	225.22507	4.21718	529.59955	74.96023	1207.48413	-73.11978	-9.62980	580.87054	-214.56450	148.41457	579.96393	-211.70406	-18.63934	532.56360	729.06042	129.75981	522.12622	730.38397	
3515	35.140	-140.52390	27.59046	-97.80196	262.63782	18.53675	-55.28000	-125.17721	1.93492	564.78400	225.21216	3.32369	526.59796	75.34166	1207.85107	-74.09672	-9.92452	581.19501	-216.20233	148.22484	580.12238	-213.41110	-19.61561	532.43127	726.99921	129.14250	521.98047	728.71179	
3516	35.150	-140.92326	21.69489	-100.94933	262.50403	18.62527	-55.22960	-124.92749	2.01844	564.64478	225.93993	1.64689	527.39404	75.43739	1208.00562	-75.43434	-9.99504	580.89221	-218.16281	148.43323	579.94232	-215.10672	-20.58271	533.49878	725.31104	127.68855	523.09430	727.22192	
3517	35.160	-141.85391	21.15438	-102.47816	262.47900	18.57685	-55.25950	-124.85014	2.24054	564.25574	226.69299	3.49595	526.79657	75.50278	1207.99219	-77.23534	-10.08169	580.57617	-220.35278	148.36139	579.68994	-216.64406	-21.87326	534.71497	723.70795	126.68414	524.55627	725.31378	
3518	35.170	-142.16692	20.15370	-101.93667	262.40811	18.65916	-55.39314	-124.90202	2.63962	563.77527	225.71497	3.69394	528.50732	74.80650	1208.25684	-80.54287	-9.73290	581.00635	-221.41666	148.74150	579.85443	-218.31407	-22.36904	536.19177	721.46521	126.11215	525.59369	723.54443	
3519	35.180	-141.90607	19.21896	-101.62981	261.39874	20.92566	-56.25061	-124.80925	5.08619	563.37476	225.18152	3.13901	528.37378	74.34368	1209.05835	-84.43156	-9.75257	582.20471	-223.17535	148.60733	580.78839	-219.65244	-23.65207	536.94653	720.38037	127.56219	525.89349	722.09137	
3520	35.190	-141.61816	19.32022	-101.03478	257.23917	24.01004	-54.79268	-123.42631	8.14113	564.50696	226.02214	2.19907	527.39764	74.19085	1209.86731	-87.48840	-9.66188	583.73541	-224.99020	148.90051	582.21387	-221.48807	-24.39804	536.85370	718.37701	126.63514	526.09192	720.63446	
3521	35.200	-141.56488	19.96773	-102.65689	253.28136	30.49402	-53.55894	-120.94592	13.61666	564.18207	226.11998	2.64058	527.46979	74.35728	1210.40625	-89.02660	-9.70373	584.15179	-226.84563	148.46910	583.09674	-223.16586	-24.85673	537.19196	716.47192	125.64523	527.02039	718.93750	
3522	35.210	-141.70737	19.92575	-102.59026	251.35516	38.68179	-53.63250	-117.63470	21.72336	562.76300	225.61652	2.91964	527.14606	74.55896	1211.14160	-89.29518	-9.77342	584.52301	-228.87523	148.57455	583.19409	-224.99640	-25.33405	537.81189	714.38733	124.91731	527.79138	717.18854	
3523	35.220	-141.73071	19.42929	-102.36090	251.31987	49.52998	-55.94895	-117.13642	33.27229	559.25000	225.58742	3.17446	527.44556	74.81611	1211.79749	-89.69569	-10.16604	584.66888	-230.48990	148.20518	583.17657	-226.64920	-25.79971	538.40857	712.69232	124.23495	528.22845	715.62976	
3524	35.230	-141.95929	19.29061	-102.38956	252.84340	61.32445	-59.90158	-119.08823	44.63858	555.40472	225.80235	3.11210	527.29169	75.32781	1211.83643	-90.61004	-10.48783	584.60010	-232.30498	148.08749	583.19794	-228.52359	-26.09541	538.19873	711.25171	124.05154	527.85822	713.81421	
3525	35.240	-141.99899	19.08381	-102.52181	253.88489	74.10661	-64.90807	-122.37783	56.04799	550.47040	225.94881	2.82849	527.04968	75.32663	1211.74951	-92.41684	-11.44527	584.93457	-234.16415	147.16681	583.65302	-230.12143	-26.41301	537.17181	709.42560	127.05916	525.92535	710.53455	
3526	35.250	-142.11702	18.80758	-102.55556	255.07098	87.06505	-70.82536	-126.37524	68.11986	545.01813	226.00835	2.79381	526.92108	74.49339	1211.27637	-94.40128	-11.58407	585.04517	-235.79428	146.65166	583.98340	-231.90163	-26.50267	536.34595	707.65765	126.57816	525.22473	708.83478	
3527	35.260	-142.14417	18.59598	-102.65376	256.38077	99.50428	-76.47824	-128.78326	79.28429	539.11450	226.21895	2.83983	526.92352	73.27599	1210.96826	-96.06684	-12.07994	585.24292	-237.67690	146.08884	583.89252	-233.80049	-26.92922	535.65924	705.96857	126.12337	524.53485	707.30365	
3528	35.270	-142.15477	18.47216	-102.75328	256.89621	111.47274	-82.51083	-129.92189	90.52192	532.53870	226.24255	2.93960	526.87994	71.96197	1210.97913	-97.00336	-12.21066	585.19727	-239.25060	145.91516	584.02179	-235.55070	-27.23668	535.26019	704.29175	125.91121	524.14893	705.58325	
3529	35.280	-142.14108	18.26199	-102.91431	256.98203	122.69617	-88.44319	-131.54529	101.75935	525.97699	226.27052	3.02054	526.84650	70.96846	1211.42212	-97.95450	-12.46975	585.11823	-241.15414	146.09021	583.71460	-236.97325	-27.79145	535.11432	702.18372	125.76376	523.95300	703.86304	
3530	35.290	-142.31610	18.14109	-103.08921	255.90396	133.21893	-94.03102	-132.57396	111.79886	519.99396	226.22823	3.04630	526.80841	70.50708	1211.44031	-99.13092	-12.42111	584.75592	-242.48717	145.83211	583.57104	-238.57442	-28.59627	534.74884	700.44537	125.00973	523.87262	702.21619	
3531	35.300	-142.48091	18.14092	-103.17173	255.42975	142.82956	-99.59643	-133.76140	120.82903	513.99048	226.21240	3.19729	526.70264	70.43937	1211.26733	-100.78838	-12.60361	584.68506	-244.14023	145.76991	583.60284	-240.52931	-29.70690	534.59314	698.99384	124.30434	523.83545	700.40466	
3532	35.310	-142.66994	18.14993	-103.40047	254.29959	149.82129	-104.78807	-135.32928	128.30870	508.60333	226.16551	3.38955	526.47620	70.60133	1210.92224	-102.80843	-13.08007	584.73090	-245.97490	145.21028	583.65051	-241.78705	-30.04312	534.65741	697.19012	123.80128	523.91473	698.84332	
3533	35.320	-142.83897	18.14386	-103.50220	255.01251	154.02470	-108.29022	-138.74391	134.16411	503.27176	226.12773	3.53405	526.30896	70.77150	1210.84204	-104.81737	-13.26184	584.72729	-247.63733	144.77049	583.68152	-243.24734	-30.45350	534.93036	695.71454	123.20011	524.10754	697.27808	
3534	35.330	-142.92297	18.13808	-103.58884	255.39130	156.01759	-111.36958	-141.93675	137.25188	498.89371	226.00069	3.57723	526.17987	70.34473	1210.95569	-106.68649	-13.69769	584.60547	-248.82314	144.52901	583.67242	-244.68843	-30.76464	535.41748	694.50330	121.35583	525.00269	696.50116	
3535	35.340	-142.97876	18.10133	-103.65457	257.87427	155.31319	-113.19959	-144.59697	136.68634	495.95230	225.51321	2.96535	525.31799	69.39517	1211.16516	-108.49994	-13.79946	584.44202	-250.37157	144.32788	583.73895	-246.16940	-31.27358	535.92047	692.90698	121.80335	525.61102	695.99237	
3536	35.350	-143.02710	18.03641	-103.71052	257.45779	152.12379	-115.77534	-147.14037	134.57214	492.82385	225.77560	3.93280	526.00592	68.35689	1211.13501	-110.15632	-14.17832	584.62714	-251.80165	144.09299	583.49884	-247.26363	-32.31474	536.48486	691.51709	119.39836	526.82672	695.24915	
3537	35.360	-143.01134	18.01350	-103.79662	254.82024	146.80974	-119.03371	-149.41217	131.36356	489.74762	225.54143	4.16267	525.97028	67.43749	1211.20752	-111.81101	-14.11453	584.54993	-253.03078	144.02361	583.40869	-248.76959	-32.68230	536.93878	690.01563	118.97478	527.07947	693.71130	
3538	35.370	-142.97250	18.06535	-103.83221	255.16888	141.83463	-121.06660	-151.59801	127.20585	486.28931	225.31781	4.34159	525.91125	67.01795	1211.26648	-113.63072	-14.73012	584.81976	-254.56514	143.68481	583.61578	-250.08415	-33.48451	537.25208	688.80011	120.43432	526.34753	690.70453	
3539	35.380	-142.97922	18.05634	-103.96577	254.27924	135.23625	-124.19860	-154.05673	122.07135	482.63974	225.17242	4.50017	525.81152	67.17616	1211.53638	-115.12302	-15.11244	584.89331	-255.94843	143.81186	583.54010	-251.46254	-33.69739	537.53979	687.43945	119.75507	526.74207	689.41498	
3540	35.390	-142.99489	17.95576	-104.06803	253.49539	128.03651	-127.60860	-155.76788	115.94154	478.77521	225.05867	4.60384	525.66821	67.32819	1211.58411	-116.54515	-15.69878	584.91492	-257.49246	142.66035	583.69867	-252.85187	-34.13223	537.77148	686.10767	119.37386	526.87799	688.25775	
3541	35.400	-143.08066	17.80236	-104.13618	252.86934	120.37988	-131.67538	-157.19495	108.72818	474.78888	224.94914	4.76357	525.53552	67.67889	1211.26941	-117.72937	-16.02563	584.63379	-258.28229	142.60719	583.47406	-254.13208	-34.08604	537.88312	684.82086	119.16017	527.08948	686.88135	
3542	35.410	-142.21771	16.75944	-103.88576	252.39883	112.13573	-135.84178	-158.52966	100.44233	470.59338	224.93756	4.82014	525.41663	67.89113	1211.02881	-118.99374	-16.89902	584.66528	-259.61935	141.33395	583.31024	-255.25801	-34.54051	538.10223	683.76471	118.83836	526.94244	685.77112	
